<mxfile host="Electron" modified="2024-10-21T01:50:38.006Z" agent="Mozilla/5.0 (Windows NT 10.0; Win64; x64) AppleWebKit/537.36 (KHTML, like Gecko) draw.io/21.2.8 Chrome/112.0.5615.165 Electron/24.2.0 Safari/537.36" etag="xQVDhNinhy9GELLEDybp" version="21.2.8" type="device">
  <diagram id="C5RBs43oDa-KdzZeNtuy" name="Page-1">
    <mxGraphModel dx="2514" dy="984" grid="1" gridSize="10" guides="1" tooltips="1" connect="1" arrows="1" fold="1" page="1" pageScale="1" pageWidth="827" pageHeight="1169" math="0" shadow="0">
      <root>
        <mxCell id="WIyWlLk6GJQsqaUBKTNV-0" />
        <mxCell id="WIyWlLk6GJQsqaUBKTNV-1" parent="WIyWlLk6GJQsqaUBKTNV-0" />
        <mxCell id="AdkErNaKAnFUTKggrUqt-0" value="&lt;div style=&quot;padding: 30px; font-size: medium; text-align: start;&quot; class=&quot;rtcContent&quot;&gt;&lt;div style=&quot;font-size: 10pt; font-family: Menlo, Monaco, Consolas, &amp;quot;Courier New&amp;quot;, monospace;&quot; class=&quot;lineNode&quot;&gt;handle&lt;/div&gt;&lt;/div&gt;" style="html=1;whiteSpace=wrap;" vertex="1" parent="WIyWlLk6GJQsqaUBKTNV-1">
          <mxGeometry x="202" y="30" width="130" height="45" as="geometry" />
        </mxCell>
        <mxCell id="AdkErNaKAnFUTKggrUqt-1" value="&lt;div style=&quot;padding: 30px; font-size: medium; text-align: start;&quot; class=&quot;rtcContent&quot;&gt;&lt;div style=&quot;font-size: 10pt; font-family: Menlo, Monaco, Consolas, &amp;quot;Courier New&amp;quot;, monospace;&quot; class=&quot;lineNode&quot;&gt;matlab.mixin.SetGet&lt;/div&gt;&lt;/div&gt;" style="whiteSpace=wrap;html=1;" vertex="1" parent="WIyWlLk6GJQsqaUBKTNV-1">
          <mxGeometry y="160" width="220" height="45" as="geometry" />
        </mxCell>
        <mxCell id="AdkErNaKAnFUTKggrUqt-4" value="Extends" style="endArrow=block;endSize=16;endFill=0;html=1;rounded=0;entryX=0.5;entryY=1;entryDx=0;entryDy=0;exitX=0.5;exitY=0;exitDx=0;exitDy=0;edgeStyle=orthogonalEdgeStyle;" edge="1" parent="WIyWlLk6GJQsqaUBKTNV-1" source="AdkErNaKAnFUTKggrUqt-1" target="AdkErNaKAnFUTKggrUqt-0">
          <mxGeometry width="160" relative="1" as="geometry">
            <mxPoint x="142" y="320" as="sourcePoint" />
            <mxPoint x="302" y="320" as="targetPoint" />
          </mxGeometry>
        </mxCell>
        <mxCell id="AdkErNaKAnFUTKggrUqt-5" value="&lt;div style=&quot;padding: 30px; font-size: medium; text-align: start;&quot; class=&quot;rtcContent&quot;&gt;&lt;div style=&quot;font-size: 10pt; font-family: Menlo, Monaco, Consolas, &amp;quot;Courier New&amp;quot;, monospace;&quot; class=&quot;lineNode&quot;&gt;&lt;div style=&quot;padding: 30px; font-size: medium;&quot; class=&quot;rtcContent&quot;&gt;&lt;code style=&quot;box-sizing: border-box; font-family: Menlo, Monaco, Consolas, &amp;quot;Courier New&amp;quot;, monospace; font-size: 14px; padding: 0px; color: rgb(64, 64, 64); background-color: rgb(255, 255, 255); border-radius: 0px;&quot; class=&quot;literal&quot;&gt;dynamicprops&lt;/code&gt;&lt;div style=&quot;font-size: 10pt;&quot; class=&quot;lineNode&quot;&gt;&lt;span style=&quot;&quot;&gt;&lt;/span&gt;&lt;/div&gt;&lt;/div&gt;&lt;/div&gt;&lt;/div&gt;" style="whiteSpace=wrap;html=1;" vertex="1" parent="WIyWlLk6GJQsqaUBKTNV-1">
          <mxGeometry x="314" y="160" width="220" height="45" as="geometry" />
        </mxCell>
        <mxCell id="AdkErNaKAnFUTKggrUqt-7" value="Extends" style="endArrow=block;endSize=16;endFill=0;html=1;rounded=0;entryX=0.5;entryY=1;entryDx=0;entryDy=0;exitX=0.5;exitY=0;exitDx=0;exitDy=0;edgeStyle=orthogonalEdgeStyle;" edge="1" parent="WIyWlLk6GJQsqaUBKTNV-1" source="AdkErNaKAnFUTKggrUqt-5" target="AdkErNaKAnFUTKggrUqt-0">
          <mxGeometry width="160" relative="1" as="geometry">
            <mxPoint x="112" y="290" as="sourcePoint" />
            <mxPoint x="277" y="130" as="targetPoint" />
          </mxGeometry>
        </mxCell>
        <mxCell id="AdkErNaKAnFUTKggrUqt-35" style="edgeStyle=orthogonalEdgeStyle;rounded=0;orthogonalLoop=1;jettySize=auto;html=1;entryX=1;entryY=0.5;entryDx=0;entryDy=0;endArrow=block;endFill=0;endSize=16;" edge="1" parent="WIyWlLk6GJQsqaUBKTNV-1" source="AdkErNaKAnFUTKggrUqt-8" target="AdkErNaKAnFUTKggrUqt-14">
          <mxGeometry relative="1" as="geometry">
            <Array as="points">
              <mxPoint x="570" y="627" />
              <mxPoint x="570" y="629" />
            </Array>
          </mxGeometry>
        </mxCell>
        <mxCell id="AdkErNaKAnFUTKggrUqt-36" style="edgeStyle=orthogonalEdgeStyle;rounded=0;orthogonalLoop=1;jettySize=auto;html=1;endArrow=block;endFill=0;endSize=16;entryX=1;entryY=0.5;entryDx=0;entryDy=0;" edge="1" parent="WIyWlLk6GJQsqaUBKTNV-1" source="AdkErNaKAnFUTKggrUqt-8" target="AdkErNaKAnFUTKggrUqt-15">
          <mxGeometry relative="1" as="geometry">
            <Array as="points">
              <mxPoint x="570" y="627" />
              <mxPoint x="570" y="686" />
            </Array>
          </mxGeometry>
        </mxCell>
        <mxCell id="AdkErNaKAnFUTKggrUqt-37" style="edgeStyle=orthogonalEdgeStyle;rounded=0;orthogonalLoop=1;jettySize=auto;html=1;entryX=1;entryY=0.5;entryDx=0;entryDy=0;endArrow=block;endFill=0;endSize=16;" edge="1" parent="WIyWlLk6GJQsqaUBKTNV-1" source="AdkErNaKAnFUTKggrUqt-8" target="AdkErNaKAnFUTKggrUqt-10">
          <mxGeometry relative="1" as="geometry">
            <mxPoint x="380" y="800" as="targetPoint" />
            <Array as="points">
              <mxPoint x="570" y="627" />
              <mxPoint x="570" y="400" />
            </Array>
          </mxGeometry>
        </mxCell>
        <mxCell id="AdkErNaKAnFUTKggrUqt-38" style="edgeStyle=orthogonalEdgeStyle;rounded=0;orthogonalLoop=1;jettySize=auto;html=1;entryX=1;entryY=0.5;entryDx=0;entryDy=0;endArrow=block;endFill=0;endSize=16;" edge="1" parent="WIyWlLk6GJQsqaUBKTNV-1" source="AdkErNaKAnFUTKggrUqt-8" target="AdkErNaKAnFUTKggrUqt-12">
          <mxGeometry relative="1" as="geometry">
            <Array as="points">
              <mxPoint x="570" y="627" />
              <mxPoint x="570" y="514" />
            </Array>
          </mxGeometry>
        </mxCell>
        <mxCell id="AdkErNaKAnFUTKggrUqt-39" style="edgeStyle=orthogonalEdgeStyle;rounded=0;orthogonalLoop=1;jettySize=auto;html=1;entryX=1;entryY=0.5;entryDx=0;entryDy=0;endArrow=block;endFill=0;endSize=16;" edge="1" parent="WIyWlLk6GJQsqaUBKTNV-1" source="AdkErNaKAnFUTKggrUqt-8" target="AdkErNaKAnFUTKggrUqt-16">
          <mxGeometry relative="1" as="geometry">
            <Array as="points">
              <mxPoint x="570" y="627" />
              <mxPoint x="570" y="743" />
            </Array>
          </mxGeometry>
        </mxCell>
        <mxCell id="AdkErNaKAnFUTKggrUqt-40" style="edgeStyle=orthogonalEdgeStyle;rounded=0;orthogonalLoop=1;jettySize=auto;html=1;entryX=1;entryY=0.5;entryDx=0;entryDy=0;endArrow=block;endFill=0;endSize=16;" edge="1" parent="WIyWlLk6GJQsqaUBKTNV-1" source="AdkErNaKAnFUTKggrUqt-8" target="AdkErNaKAnFUTKggrUqt-11">
          <mxGeometry relative="1" as="geometry">
            <Array as="points">
              <mxPoint x="570" y="627" />
              <mxPoint x="570" y="457" />
            </Array>
          </mxGeometry>
        </mxCell>
        <mxCell id="AdkErNaKAnFUTKggrUqt-41" style="edgeStyle=orthogonalEdgeStyle;rounded=0;orthogonalLoop=1;jettySize=auto;html=1;entryX=1;entryY=0.5;entryDx=0;entryDy=0;endArrow=block;endFill=0;endSize=16;" edge="1" parent="WIyWlLk6GJQsqaUBKTNV-1" source="AdkErNaKAnFUTKggrUqt-8" target="AdkErNaKAnFUTKggrUqt-13">
          <mxGeometry relative="1" as="geometry">
            <Array as="points">
              <mxPoint x="570" y="627" />
              <mxPoint x="570" y="572" />
            </Array>
          </mxGeometry>
        </mxCell>
        <mxCell id="AdkErNaKAnFUTKggrUqt-42" style="edgeStyle=orthogonalEdgeStyle;rounded=0;orthogonalLoop=1;jettySize=auto;html=1;entryX=1;entryY=0.5;entryDx=0;entryDy=0;endArrow=block;endFill=0;endSize=16;" edge="1" parent="WIyWlLk6GJQsqaUBKTNV-1" source="AdkErNaKAnFUTKggrUqt-8" target="AdkErNaKAnFUTKggrUqt-17">
          <mxGeometry relative="1" as="geometry">
            <Array as="points">
              <mxPoint x="570" y="627" />
              <mxPoint x="570" y="801" />
            </Array>
          </mxGeometry>
        </mxCell>
        <mxCell id="AdkErNaKAnFUTKggrUqt-8" value="&lt;div style=&quot;padding: 30px; font-size: medium; text-align: start;&quot; class=&quot;rtcContent&quot;&gt;&lt;div style=&quot;font-size: 10pt; font-family: Menlo, Monaco, Consolas, &amp;quot;Courier New&amp;quot;, monospace;&quot; class=&quot;lineNode&quot;&gt;matlab.ui.control.Button&lt;/div&gt;&lt;/div&gt;" style="html=1;whiteSpace=wrap;" vertex="1" parent="WIyWlLk6GJQsqaUBKTNV-1">
          <mxGeometry x="620" y="606.5" width="240" height="45" as="geometry" />
        </mxCell>
        <mxCell id="AdkErNaKAnFUTKggrUqt-44" value="" style="edgeStyle=orthogonalEdgeStyle;rounded=0;orthogonalLoop=1;jettySize=auto;html=1;" edge="1" parent="WIyWlLk6GJQsqaUBKTNV-1" source="AdkErNaKAnFUTKggrUqt-10" target="AdkErNaKAnFUTKggrUqt-43">
          <mxGeometry relative="1" as="geometry" />
        </mxCell>
        <mxCell id="AdkErNaKAnFUTKggrUqt-10" value="&lt;div style=&quot;padding: 30px; font-size: medium; text-align: start;&quot; class=&quot;rtcContent&quot;&gt;&lt;div style=&quot;font-size: 10pt; font-family: Menlo, Monaco, Consolas, &amp;quot;Courier New&amp;quot;, monospace;&quot; class=&quot;lineNode&quot;&gt;&lt;div style=&quot;padding: 30px; font-size: medium;&quot; class=&quot;rtcContent&quot;&gt;&lt;div style=&quot;font-size: 10pt;&quot; class=&quot;lineNode&quot;&gt;matlab.ui.control.internal.model.ComponentModel&amp;nbsp;&lt;/div&gt;&lt;/div&gt;&lt;/div&gt;&lt;/div&gt;" style="html=1;whiteSpace=wrap;" vertex="1" parent="WIyWlLk6GJQsqaUBKTNV-1">
          <mxGeometry y="375" width="460" height="50" as="geometry" />
        </mxCell>
        <mxCell id="AdkErNaKAnFUTKggrUqt-11" value="&lt;div style=&quot;padding: 30px; font-size: medium; text-align: start;&quot; class=&quot;rtcContent&quot;&gt;&lt;div style=&quot;font-size: 10pt; font-family: Menlo, Monaco, Consolas, &amp;quot;Courier New&amp;quot;, monospace;&quot; class=&quot;lineNode&quot;&gt;&lt;div style=&quot;padding: 30px; font-size: medium;&quot; class=&quot;rtcContent&quot;&gt;&lt;div style=&quot;font-size: 10pt;&quot; class=&quot;lineNode&quot;&gt;&lt;div style=&quot;border-color: var(--border-color); font-size: 10pt;&quot; class=&quot;lineNode&quot;&gt;&lt;span style=&quot;border-color: var(--border-color);&quot;&gt;matlab.ui.control.internal.model.mixin.ButtonComponent&amp;nbsp;&lt;/span&gt;&lt;/div&gt;&lt;/div&gt;&lt;/div&gt;&lt;/div&gt;&lt;/div&gt;" style="html=1;whiteSpace=wrap;" vertex="1" parent="WIyWlLk6GJQsqaUBKTNV-1">
          <mxGeometry y="432" width="460" height="50" as="geometry" />
        </mxCell>
        <mxCell id="AdkErNaKAnFUTKggrUqt-12" value="&lt;div style=&quot;padding: 30px; font-size: medium; text-align: start;&quot; class=&quot;rtcContent&quot;&gt;&lt;div style=&quot;font-size: 10pt; font-family: Menlo, Monaco, Consolas, &amp;quot;Courier New&amp;quot;, monospace;&quot; class=&quot;lineNode&quot;&gt;&lt;div style=&quot;padding: 30px; font-size: medium;&quot; class=&quot;rtcContent&quot;&gt;&lt;div style=&quot;font-size: 10pt;&quot; class=&quot;lineNode&quot;&gt;&lt;div style=&quot;border-color: var(--border-color); font-size: 10pt;&quot; class=&quot;lineNode&quot;&gt;&lt;span style=&quot;font-size: 10pt; background-color: initial;&quot;&gt;matlab.ui.control.internal.model.mixin.FontStyledComponent&lt;/span&gt;&lt;br&gt;&lt;/div&gt;&lt;/div&gt;&lt;/div&gt;&lt;/div&gt;&lt;/div&gt;" style="html=1;whiteSpace=wrap;" vertex="1" parent="WIyWlLk6GJQsqaUBKTNV-1">
          <mxGeometry y="489" width="460" height="50" as="geometry" />
        </mxCell>
        <mxCell id="AdkErNaKAnFUTKggrUqt-13" value="&lt;div style=&quot;padding: 30px; font-size: medium; text-align: start;&quot; class=&quot;rtcContent&quot;&gt;&lt;div style=&quot;font-size: 10pt; font-family: Menlo, Monaco, Consolas, &amp;quot;Courier New&amp;quot;, monospace;&quot; class=&quot;lineNode&quot;&gt;&lt;div style=&quot;padding: 30px; font-size: medium;&quot; class=&quot;rtcContent&quot;&gt;&lt;div style=&quot;font-size: 10pt;&quot; class=&quot;lineNode&quot;&gt;&lt;div style=&quot;border-color: var(--border-color); font-size: 10pt;&quot; class=&quot;lineNode&quot;&gt;&lt;span style=&quot;font-size: 10pt; background-color: initial;&quot;&gt;matlab.ui.control.internal.model.mixin.PositionableComponent&lt;/span&gt;&lt;br&gt;&lt;/div&gt;&lt;/div&gt;&lt;/div&gt;&lt;/div&gt;&lt;/div&gt;" style="html=1;whiteSpace=wrap;" vertex="1" parent="WIyWlLk6GJQsqaUBKTNV-1">
          <mxGeometry y="547" width="460" height="50" as="geometry" />
        </mxCell>
        <mxCell id="AdkErNaKAnFUTKggrUqt-14" value="&lt;div style=&quot;padding: 30px; font-size: medium; text-align: start;&quot; class=&quot;rtcContent&quot;&gt;&lt;div style=&quot;font-size: 10pt; font-family: Menlo, Monaco, Consolas, &amp;quot;Courier New&amp;quot;, monospace;&quot; class=&quot;lineNode&quot;&gt;&lt;div style=&quot;padding: 30px; font-size: medium;&quot; class=&quot;rtcContent&quot;&gt;&lt;div style=&quot;font-size: 10pt;&quot; class=&quot;lineNode&quot;&gt;&lt;div style=&quot;border-color: var(--border-color); font-size: 10pt;&quot; class=&quot;lineNode&quot;&gt;&lt;span style=&quot;font-size: 10pt; background-color: initial;&quot;&gt;matlab.ui.control.internal.model.mixin.EnableableComponent&lt;/span&gt;&lt;br&gt;&lt;/div&gt;&lt;/div&gt;&lt;/div&gt;&lt;/div&gt;&lt;/div&gt;" style="html=1;whiteSpace=wrap;" vertex="1" parent="WIyWlLk6GJQsqaUBKTNV-1">
          <mxGeometry y="604" width="460" height="50" as="geometry" />
        </mxCell>
        <mxCell id="AdkErNaKAnFUTKggrUqt-15" value="&lt;div style=&quot;padding: 30px; font-size: medium; text-align: start;&quot; class=&quot;rtcContent&quot;&gt;&lt;div style=&quot;font-size: 10pt; font-family: Menlo, Monaco, Consolas, &amp;quot;Courier New&amp;quot;, monospace;&quot; class=&quot;lineNode&quot;&gt;&lt;div style=&quot;padding: 30px; font-size: medium;&quot; class=&quot;rtcContent&quot;&gt;&lt;div style=&quot;font-size: 10pt;&quot; class=&quot;lineNode&quot;&gt;&lt;div style=&quot;border-color: var(--border-color); font-size: 10pt;&quot; class=&quot;lineNode&quot;&gt;&lt;span style=&quot;font-size: 10pt; background-color: initial;&quot;&gt;matlab.ui.control.internal.model.mixin.VisibleComponent&lt;/span&gt;&lt;br&gt;&lt;/div&gt;&lt;/div&gt;&lt;/div&gt;&lt;/div&gt;&lt;/div&gt;" style="html=1;whiteSpace=wrap;" vertex="1" parent="WIyWlLk6GJQsqaUBKTNV-1">
          <mxGeometry y="661" width="460" height="50" as="geometry" />
        </mxCell>
        <mxCell id="AdkErNaKAnFUTKggrUqt-16" value="&lt;div style=&quot;padding: 30px; font-size: medium; text-align: start;&quot; class=&quot;rtcContent&quot;&gt;&lt;div style=&quot;font-size: 10pt; font-family: Menlo, Monaco, Consolas, &amp;quot;Courier New&amp;quot;, monospace;&quot; class=&quot;lineNode&quot;&gt;&lt;div style=&quot;padding: 30px; font-size: medium;&quot; class=&quot;rtcContent&quot;&gt;&lt;div style=&quot;font-size: 10pt;&quot; class=&quot;lineNode&quot;&gt;&lt;div style=&quot;border-color: var(--border-color); font-size: 10pt;&quot; class=&quot;lineNode&quot;&gt;&lt;span style=&quot;font-size: 10pt; background-color: initial;&quot;&gt;matlab.ui.control.internal.model.mixin.TooltipComponent&lt;/span&gt;&lt;br&gt;&lt;/div&gt;&lt;/div&gt;&lt;/div&gt;&lt;/div&gt;&lt;/div&gt;" style="html=1;whiteSpace=wrap;" vertex="1" parent="WIyWlLk6GJQsqaUBKTNV-1">
          <mxGeometry y="718" width="460" height="50" as="geometry" />
        </mxCell>
        <mxCell id="AdkErNaKAnFUTKggrUqt-17" value="&lt;div style=&quot;padding: 30px; font-size: medium; text-align: start;&quot; class=&quot;rtcContent&quot;&gt;&lt;div style=&quot;font-size: 10pt; font-family: Menlo, Monaco, Consolas, &amp;quot;Courier New&amp;quot;, monospace;&quot; class=&quot;lineNode&quot;&gt;&lt;div style=&quot;padding: 30px; font-size: medium;&quot; class=&quot;rtcContent&quot;&gt;&lt;div style=&quot;font-size: 10pt;&quot; class=&quot;lineNode&quot;&gt;&lt;div style=&quot;border-color: var(--border-color); font-size: 10pt;&quot; class=&quot;lineNode&quot;&gt;&lt;span style=&quot;font-size: 10pt; background-color: initial;&quot;&gt;matlab.ui.control.internal.model.mixin.Layoutable&lt;/span&gt;&lt;/div&gt;&lt;/div&gt;&lt;/div&gt;&lt;/div&gt;&lt;/div&gt;" style="html=1;whiteSpace=wrap;" vertex="1" parent="WIyWlLk6GJQsqaUBKTNV-1">
          <mxGeometry y="776" width="460" height="50" as="geometry" />
        </mxCell>
        <mxCell id="AdkErNaKAnFUTKggrUqt-18" value="&lt;div style=&quot;padding: 30px; font-size: medium; text-align: start;&quot; class=&quot;rtcContent&quot;&gt;&lt;div style=&quot;font-size: 10pt; font-family: Menlo, Monaco, Consolas, &amp;quot;Courier New&amp;quot;, monospace;&quot; class=&quot;lineNode&quot;&gt;&lt;div style=&quot;padding: 30px; font-size: medium;&quot; class=&quot;rtcContent&quot;&gt;&lt;div style=&quot;font-size: 10pt;&quot; class=&quot;lineNode&quot;&gt;&lt;div style=&quot;border-color: var(--border-color); font-size: 10pt;&quot; class=&quot;lineNode&quot;&gt;&lt;div style=&quot;border-color: var(--border-color); font-size: 10pt;&quot; class=&quot;lineNode&quot;&gt;matlab.ui.control.internal.model.mixin.FocusableComponent&lt;/div&gt;&lt;/div&gt;&lt;/div&gt;&lt;/div&gt;&lt;/div&gt;&lt;/div&gt;" style="html=1;whiteSpace=wrap;" vertex="1" parent="WIyWlLk6GJQsqaUBKTNV-1">
          <mxGeometry y="833" width="460" height="50" as="geometry" />
        </mxCell>
        <mxCell id="AdkErNaKAnFUTKggrUqt-19" value="&lt;div style=&quot;padding: 30px; font-size: medium; text-align: start;&quot; class=&quot;rtcContent&quot;&gt;&lt;div style=&quot;font-size: 10pt; font-family: Menlo, Monaco, Consolas, &amp;quot;Courier New&amp;quot;, monospace;&quot; class=&quot;lineNode&quot;&gt;&lt;div style=&quot;padding: 30px; font-size: medium;&quot; class=&quot;rtcContent&quot;&gt;&lt;div style=&quot;font-size: 10pt;&quot; class=&quot;lineNode&quot;&gt;&lt;div style=&quot;border-color: var(--border-color); font-size: 10pt;&quot; class=&quot;lineNode&quot;&gt;&lt;div style=&quot;border-color: var(--border-color); font-size: 10pt;&quot; class=&quot;lineNode&quot;&gt;matlab.ui.control.internal.model.mixin.IconIDableComponent&lt;br&gt;&lt;/div&gt;&lt;/div&gt;&lt;/div&gt;&lt;/div&gt;&lt;/div&gt;&lt;/div&gt;" style="html=1;whiteSpace=wrap;" vertex="1" parent="WIyWlLk6GJQsqaUBKTNV-1">
          <mxGeometry y="890" width="460" height="50" as="geometry" />
        </mxCell>
        <mxCell id="AdkErNaKAnFUTKggrUqt-22" value="&lt;div style=&quot;padding: 30px; font-size: medium; text-align: start;&quot; class=&quot;rtcContent&quot;&gt;&lt;div style=&quot;font-size: 10pt; font-family: Menlo, Monaco, Consolas, &amp;quot;Courier New&amp;quot;, monospace;&quot; class=&quot;lineNode&quot;&gt;matlab.mixin.SetGet&lt;/div&gt;&lt;/div&gt;" style="whiteSpace=wrap;html=1;" vertex="1" parent="WIyWlLk6GJQsqaUBKTNV-1">
          <mxGeometry y="320" width="460" height="45" as="geometry" />
        </mxCell>
        <mxCell id="AdkErNaKAnFUTKggrUqt-23" value="Extends" style="endArrow=block;endSize=16;endFill=0;rounded=0;entryX=1;entryY=0.5;entryDx=0;entryDy=0;exitX=0;exitY=0.5;exitDx=0;exitDy=0;edgeStyle=orthogonalEdgeStyle;html=1;" edge="1" parent="WIyWlLk6GJQsqaUBKTNV-1" source="AdkErNaKAnFUTKggrUqt-8" target="AdkErNaKAnFUTKggrUqt-22">
          <mxGeometry width="160" relative="1" as="geometry">
            <mxPoint x="537" y="488.5" as="sourcePoint" />
            <mxPoint x="380" y="403.5" as="targetPoint" />
            <Array as="points">
              <mxPoint x="570" y="627" />
              <mxPoint x="570" y="343" />
            </Array>
          </mxGeometry>
        </mxCell>
        <mxCell id="AdkErNaKAnFUTKggrUqt-33" value="Extends" style="endArrow=block;endSize=16;endFill=0;html=1;rounded=0;entryX=1;entryY=0.5;entryDx=0;entryDy=0;exitX=0;exitY=0.5;exitDx=0;exitDy=0;edgeStyle=orthogonalEdgeStyle;" edge="1" parent="WIyWlLk6GJQsqaUBKTNV-1" source="AdkErNaKAnFUTKggrUqt-8" target="AdkErNaKAnFUTKggrUqt-18">
          <mxGeometry width="160" relative="1" as="geometry">
            <mxPoint x="530" y="763" as="sourcePoint" />
            <mxPoint x="400" y="443" as="targetPoint" />
            <Array as="points">
              <mxPoint x="570" y="627" />
              <mxPoint x="570" y="858" />
            </Array>
          </mxGeometry>
        </mxCell>
        <mxCell id="AdkErNaKAnFUTKggrUqt-34" value="Extends" style="endArrow=block;endSize=16;endFill=0;html=1;rounded=0;entryX=1;entryY=0.5;entryDx=0;entryDy=0;exitX=0;exitY=0.5;exitDx=0;exitDy=0;edgeStyle=orthogonalEdgeStyle;" edge="1" parent="WIyWlLk6GJQsqaUBKTNV-1" source="AdkErNaKAnFUTKggrUqt-8" target="AdkErNaKAnFUTKggrUqt-19">
          <mxGeometry width="160" relative="1" as="geometry">
            <mxPoint x="540" y="773" as="sourcePoint" />
            <mxPoint x="410" y="453" as="targetPoint" />
            <Array as="points">
              <mxPoint x="570" y="627" />
              <mxPoint x="570" y="915" />
            </Array>
          </mxGeometry>
        </mxCell>
        <mxCell id="AdkErNaKAnFUTKggrUqt-43" value="&lt;div style=&quot;padding: 30px; font-size: medium; text-align: start;&quot; class=&quot;rtcContent&quot;&gt;&lt;div style=&quot;font-size: 10pt; font-family: Menlo, Monaco, Consolas, &amp;quot;Courier New&amp;quot;, monospace;&quot; class=&quot;lineNode&quot;&gt;matlab.ui.control.internal.model.AbstractComponent&lt;/div&gt;&lt;/div&gt;" style="whiteSpace=wrap;html=1;" vertex="1" parent="WIyWlLk6GJQsqaUBKTNV-1">
          <mxGeometry x="-550" y="375" width="460" height="50" as="geometry" />
        </mxCell>
      </root>
    </mxGraphModel>
  </diagram>
</mxfile>
